<?xml version="1.0" standalone="no"?>
<!DOCTYPE svg PUBLIC "-//W3C//DTD SVG 20010904//EN"
 "http://www.w3.org/TR/2001/REC-SVG-20010904/DTD/svg10.dtd">
<svg version="1.0" xmlns="http://www.w3.org/2000/svg"
 width="2240.000000pt" height="928.000000pt" viewBox="0 0 2240.000000 928.000000"
 preserveAspectRatio="xMidYMid meet">

<g transform="translate(0.000000,928.000000) scale(0.100000,-0.100000)"
fill="#000000" stroke="none">
<path d="M17030 8500 c-19 -4 -73 -15 -120 -25 -112 -22 -163 -39 -285 -96
-23 -10 -72 -30 -110 -44 -137 -51 -250 -98 -265 -111 -8 -7 -46 -24 -83 -38
-70 -26 -392 -185 -437 -216 -14 -9 -49 -27 -79 -39 -30 -13 -71 -34 -90 -47
-20 -13 -52 -29 -71 -35 -19 -6 -48 -22 -65 -34 -16 -12 -82 -48 -145 -80
-124 -63 -278 -152 -356 -207 -27 -19 -65 -40 -84 -48 -19 -7 -46 -21 -60 -30
-14 -10 -59 -34 -99 -55 -41 -20 -93 -49 -115 -63 -44 -29 -51 -32 -141 -82
-33 -18 -71 -41 -84 -51 -13 -11 -28 -19 -34 -19 -6 0 -19 -7 -29 -17 -10 -9
-27 -21 -38 -27 -11 -6 -48 -29 -82 -50 -35 -21 -139 -86 -233 -144 -93 -58
-172 -108 -175 -111 -14 -17 -84 -62 -152 -100 -43 -23 -90 -55 -105 -71 -15
-16 -41 -35 -58 -42 -16 -7 -55 -32 -87 -55 -31 -24 -59 -43 -63 -43 -8 0
-295 -197 -353 -242 -23 -18 -47 -35 -54 -37 -7 -2 -17 -8 -23 -13 -5 -4 -28
-22 -50 -38 -22 -16 -47 -36 -55 -43 -8 -8 -40 -31 -70 -52 -30 -21 -73 -55
-95 -75 -22 -19 -62 -51 -90 -70 -27 -18 -70 -54 -95 -78 -25 -25 -61 -55 -82
-68 -20 -13 -47 -33 -60 -46 -30 -29 -165 -140 -237 -196 -31 -23 -72 -57 -91
-76 -20 -19 -60 -51 -90 -71 -30 -20 -77 -57 -103 -81 -26 -24 -50 -44 -54
-44 -3 0 -35 -26 -72 -59 -36 -32 -106 -90 -156 -130 -49 -39 -97 -77 -105
-83 -25 -22 -86 -72 -125 -103 -20 -16 -58 -47 -83 -68 -24 -21 -57 -46 -71
-55 -14 -9 -49 -36 -76 -61 -61 -55 -170 -146 -284 -238 -47 -38 -108 -88
-137 -113 -28 -25 -69 -58 -89 -75 -21 -16 -45 -38 -54 -48 -9 -10 -39 -38
-67 -62 -45 -39 -62 -46 -130 -59 -44 -8 -97 -20 -119 -26 -22 -5 -71 -15
-110 -20 -38 -5 -92 -14 -119 -20 -26 -5 -67 -12 -90 -14 -43 -4 -107 -14
-291 -46 -60 -11 -139 -22 -175 -25 -36 -3 -87 -10 -115 -15 -27 -5 -57 -9
-65 -7 -8 1 -51 -4 -95 -10 -138 -21 -185 -23 -185 -10 0 13 73 77 87 77 4 0
60 50 123 111 63 61 127 117 142 125 14 7 36 27 48 44 12 16 26 30 31 30 17 0
399 388 399 405 0 21 50 75 69 75 16 0 158 147 166 172 3 9 14 20 24 23 10 3
31 26 47 50 15 25 36 47 45 50 20 7 152 151 162 178 4 9 17 21 30 26 24 9 150
125 294 269 45 45 86 82 90 82 4 0 57 51 118 113 126 128 406 394 438 417 12
8 54 45 92 81 39 37 100 92 137 123 37 31 73 65 80 74 7 10 67 67 133 126 66
59 138 127 161 149 69 71 374 367 474 462 52 50 126 126 165 170 38 44 72 82
75 85 26 24 70 92 70 108 0 10 -9 31 -21 46 -32 41 -65 34 -134 -29 -33 -30
-63 -55 -67 -55 -4 0 -26 -13 -50 -29 -24 -15 -61 -36 -83 -46 -22 -10 -61
-33 -88 -52 -26 -18 -56 -33 -66 -33 -11 0 -23 -5 -26 -11 -4 -5 -30 -21 -58
-34 -29 -13 -69 -35 -90 -49 -21 -14 -43 -26 -50 -26 -7 0 -25 -8 -42 -18 -16
-10 -43 -22 -59 -26 -16 -4 -41 -16 -54 -27 -14 -10 -30 -19 -37 -19 -7 0 -39
-13 -71 -29 -32 -16 -108 -52 -169 -80 -60 -29 -136 -65 -167 -81 -31 -17 -61
-30 -66 -30 -5 0 -56 -22 -113 -49 -57 -27 -160 -72 -229 -101 -117 -48 -272
-116 -365 -160 -22 -11 -53 -22 -70 -26 -16 -3 -39 -12 -50 -19 -31 -19 -334
-146 -385 -161 -25 -7 -63 -23 -85 -34 -21 -11 -44 -20 -50 -20 -6 0 -36 -12
-66 -26 -30 -15 -94 -42 -144 -61 -49 -18 -94 -37 -100 -42 -5 -4 -57 -22
-115 -41 -58 -18 -127 -43 -155 -55 -27 -12 -88 -34 -135 -50 -47 -15 -92 -31
-102 -36 -9 -4 -58 -19 -110 -33 -51 -14 -131 -36 -178 -49 -264 -75 -460
-103 -635 -93 -136 9 -153 11 -162 19 -3 4 -17 7 -30 7 -13 0 -31 4 -41 9 -9
5 -42 20 -72 34 -38 17 -75 46 -120 94 -77 82 -130 148 -130 161 0 5 -9 17
-20 27 -11 10 -20 22 -20 27 0 4 -16 33 -36 63 -28 41 -47 58 -80 71 -45 17
-108 14 -163 -8 -46 -19 -65 -26 -116 -43 -27 -10 -54 -22 -59 -26 -6 -5 -16
-9 -23 -9 -25 0 -254 -141 -350 -216 -153 -119 -175 -139 -216 -190 -128 -165
-120 -150 -125 -228 -4 -68 -3 -74 19 -90 13 -9 41 -16 62 -16 34 0 40 4 53
35 18 45 18 65 -2 80 -14 10 -15 15 -4 36 38 71 189 227 300 310 175 129 265
177 424 225 140 42 153 38 229 -76 87 -130 234 -284 304 -319 26 -12 56 -27
67 -33 41 -21 117 -37 243 -49 107 -10 154 -10 253 1 66 7 123 17 126 22 3 4
22 8 42 8 37 0 222 44 317 76 28 9 57 17 65 18 9 1 20 5 25 8 6 4 53 18 105
33 52 15 110 33 130 42 19 8 87 32 150 53 101 33 188 67 295 115 17 8 41 16
55 20 36 9 143 58 158 73 7 6 18 12 24 12 5 0 24 6 41 14 18 7 68 26 112 41
44 16 96 37 115 47 19 10 43 18 53 18 10 0 30 9 44 20 14 11 47 26 72 34 26 7
64 25 85 40 21 14 45 26 53 26 22 0 184 69 211 91 14 10 31 19 38 19 8 0 33 8
57 19 23 10 54 23 70 29 15 7 27 16 27 22 0 5 8 10 19 10 21 0 101 30 177 66
28 13 57 24 65 24 8 0 55 20 104 44 50 25 111 54 138 65 26 12 47 25 47 30 0
5 15 12 34 15 19 4 45 15 58 25 13 11 52 28 86 39 34 12 71 30 84 41 12 12 29
21 38 21 9 0 20 4 25 9 6 5 28 14 50 21 22 7 119 53 215 102 445 230 444 230
378 158 -18 -19 -53 -60 -79 -90 -71 -84 -535 -537 -644 -630 -27 -23 -68 -61
-91 -84 -22 -22 -80 -77 -129 -121 -49 -44 -119 -107 -155 -140 -36 -33 -87
-80 -115 -105 -27 -24 -112 -103 -188 -177 -77 -73 -143 -133 -148 -133 -5 0
-9 -4 -9 -9 0 -12 -211 -222 -321 -321 -150 -134 -470 -459 -709 -720 -52 -57
-108 -115 -123 -129 -16 -14 -97 -93 -180 -176 -84 -82 -214 -206 -291 -275
-76 -69 -153 -138 -170 -155 -40 -37 -118 -101 -168 -137 -39 -29 -57 -32
-278 -43 -41 -2 -167 -10 -280 -19 -395 -29 -443 -30 -1895 -24 -236 1 -459 1
-495 -1 -139 -6 -390 -32 -490 -51 -58 -11 -130 -25 -160 -31 -30 -6 -77 -17
-105 -25 -27 -7 -84 -20 -125 -28 -111 -22 -260 -66 -347 -103 -17 -7 -37 -13
-45 -13 -8 0 -18 -3 -22 -7 -4 -4 -26 -13 -49 -19 -86 -25 -214 -72 -264 -97
-29 -15 -58 -27 -66 -27 -14 0 -197 -89 -218 -107 -8 -6 -41 -26 -74 -43 -33
-18 -69 -38 -80 -44 -11 -6 -36 -23 -55 -37 -19 -15 -44 -29 -55 -33 -11 -3
-32 -17 -47 -31 -15 -14 -30 -25 -33 -25 -10 0 -64 -42 -118 -92 -29 -27 -55
-48 -59 -48 -13 0 -135 -126 -202 -207 -44 -54 -75 -83 -89 -84 -12 -1 -33 -3
-47 -5 -14 -3 -45 -6 -70 -8 -25 -1 -52 -5 -60 -9 -8 -3 -55 -8 -105 -11 -49
-3 -128 -10 -175 -15 -47 -6 -148 -13 -225 -16 -77 -4 -196 -13 -265 -20 -151
-17 -522 -34 -794 -35 -109 0 -242 -5 -295 -9 -103 -10 -264 -8 -373 4 -65 7
-68 7 -97 -22 -25 -25 -28 -34 -22 -64 10 -48 38 -59 159 -59 126 0 340 -19
365 -32 10 -5 34 -11 55 -14 20 -2 66 -14 102 -25 117 -38 125 -40 170 -45 93
-10 104 -9 107 6 5 22 -51 48 -137 65 -102 19 -155 42 -140 60 8 9 42 13 123
14 137 1 287 9 387 21 41 5 120 12 175 15 55 4 165 13 245 21 80 8 197 19 260
24 267 22 470 41 539 50 41 5 76 8 79 5 2 -2 -8 -28 -23 -57 -84 -161 -77
-350 18 -458 18 -20 45 -53 60 -72 27 -35 181 -143 257 -180 62 -31 192 -68
290 -83 113 -16 259 -34 280 -34 8 0 101 0 205 0 187 -1 256 4 445 34 254 40
405 69 445 85 17 6 68 20 115 30 47 10 119 30 160 43 41 14 134 44 205 67 72
22 139 46 151 51 27 14 146 56 204 73 25 7 65 23 89 34 25 12 52 22 60 22 9 0
31 9 49 20 19 12 55 28 80 36 26 9 116 49 200 90 84 41 156 74 159 74 2 0 19
10 35 22 25 17 34 19 49 10 26 -16 31 -15 25 6 -5 14 8 25 62 51 82 40 340
190 348 202 3 5 12 9 21 9 9 0 24 6 32 14 9 8 48 31 86 52 39 20 96 55 127 76
31 21 59 38 62 38 3 0 36 20 73 43 85 55 120 63 313 77 161 11 185 13 485 30
99 6 207 13 239 15 132 9 506 16 506 10 0 -11 -43 -49 -92 -83 -40 -28 -88
-68 -211 -175 -27 -23 -58 -51 -70 -63 -12 -11 -58 -51 -102 -87 -96 -79 -171
-148 -268 -242 -40 -38 -137 -126 -217 -195 -79 -69 -224 -204 -321 -300 -96
-96 -214 -209 -260 -251 -46 -42 -156 -146 -244 -232 -88 -85 -195 -188 -238
-229 -42 -40 -89 -84 -102 -97 -14 -13 -27 -22 -29 -20 -7 7 -16 246 -9 252 3
3 7 31 9 61 4 51 3 56 -25 75 -38 27 -45 26 -70 -5 -14 -18 -21 -41 -20 -73 0
-25 -2 -59 -5 -76 -3 -16 -8 -73 -11 -125 -6 -106 -20 -184 -42 -247 -21 -57
-11 -90 32 -110 27 -13 43 -14 72 -7 31 8 41 17 64 64 20 40 67 94 169 195 78
77 166 169 195 205 29 36 124 135 211 220 87 85 238 234 335 330 205 203 191
189 294 278 44 38 101 89 126 113 167 159 321 298 474 428 61 52 117 101 125
110 8 9 65 57 125 106 61 49 136 112 167 141 l57 52 168 6 c92 3 258 13 368
21 110 8 292 17 405 20 113 3 275 11 360 16 160 11 221 14 450 23 74 3 189 8
255 11 66 3 235 8 375 10 140 3 370 8 510 11 256 6 2663 10 3245 6 792 -6
3161 7 4180 23 88 2 376 5 640 8 441 5 480 7 492 23 18 25 16 47 -7 92 -24 46
-45 67 -78 77 -31 9 -76 -20 -69 -46 3 -10 2 -21 -3 -24 -11 -7 -426 -25 -680
-30 -118 -2 -345 -7 -505 -10 -467 -11 -653 -13 -1560 -19 -473 -4 -1173 -9
-1555 -13 -382 -3 -717 -6 -745 -6 -27 0 -257 4 -510 7 -253 4 -494 6 -535 6
-928 -3 -2087 -14 -2505 -25 -121 -3 -321 -7 -445 -10 -124 -2 -261 -7 -305
-9 -144 -9 -379 -20 -410 -19 -16 0 -84 -3 -150 -8 -66 -5 -210 -11 -320 -14
-110 -3 -308 -12 -440 -20 -132 -8 -295 -14 -362 -15 -67 0 -129 -3 -138 -6
-30 -12 -4 20 56 71 33 28 71 57 85 66 13 8 41 31 61 50 21 20 46 39 55 45 9
5 44 34 78 64 35 29 79 66 99 80 20 15 61 49 91 76 30 27 73 63 95 79 22 16
47 37 55 46 8 9 87 74 175 145 88 70 184 149 213 176 38 34 62 48 83 48 46 0
183 32 200 47 9 7 23 11 32 7 17 -6 125 13 142 26 6 4 32 10 59 14 27 3 63 13
79 21 17 8 40 15 51 15 12 0 51 9 86 19 186 54 246 73 254 82 6 5 24 9 41 9
17 0 76 15 131 34 54 19 114 37 132 41 44 9 92 34 99 51 3 8 20 14 42 14 20 0
47 6 61 13 14 8 40 17 58 20 17 4 51 16 74 27 23 11 51 20 62 20 12 0 30 7 40
15 11 8 28 15 38 15 10 0 21 6 24 14 3 7 26 16 52 20 26 3 61 13 77 22 17 9
56 24 88 34 32 10 72 29 90 43 18 13 53 27 79 31 27 4 53 15 60 25 8 10 39 22
78 29 36 6 87 23 113 37 27 14 57 25 67 25 10 0 23 7 30 15 7 8 21 15 31 15
11 0 19 4 19 9 0 5 15 12 33 16 57 12 65 15 70 35 3 11 14 20 24 20 10 0 23 4
29 10 5 5 34 14 63 20 29 5 60 18 69 28 22 24 124 68 179 77 23 3 44 12 46 19
3 8 21 16 40 20 19 4 51 17 71 31 19 13 53 29 74 35 40 10 158 64 222 100 19
11 42 20 50 20 8 0 32 11 52 25 20 14 42 25 47 25 11 0 113 53 146 76 11 8 26
14 35 14 24 0 414 200 475 244 16 11 52 29 78 38 71 25 177 87 177 103 0 8 8
15 17 15 9 0 64 24 121 53 161 80 180 91 194 108 7 9 31 21 53 27 22 6 67 28
100 48 33 21 81 49 106 63 26 14 93 53 150 85 57 33 134 76 170 95 36 20 81
44 100 55 19 10 68 42 109 71 41 28 103 66 138 85 34 18 62 37 62 41 0 5 17
16 37 24 42 18 130 74 188 120 22 18 90 65 150 106 108 72 325 246 325 260 0
9 17 25 66 64 75 58 286 281 328 345 152 237 206 412 186 605 -19 185 -117
337 -240 373 -54 16 -111 20 -150 12z m136 -118 c67 -37 132 -141 154 -247 29
-138 -22 -370 -106 -490 -12 -16 -31 -48 -42 -70 -11 -23 -44 -66 -72 -95 -29
-30 -69 -77 -90 -105 -20 -27 -68 -77 -105 -110 -70 -61 -141 -124 -260 -230
-37 -33 -84 -68 -104 -79 -20 -10 -48 -30 -63 -43 -15 -14 -36 -31 -47 -37
-10 -6 -68 -45 -128 -86 -59 -42 -150 -103 -201 -135 -51 -33 -126 -81 -166
-107 -40 -25 -103 -63 -142 -83 -38 -21 -76 -43 -84 -50 -8 -7 -49 -30 -90
-50 -41 -21 -82 -44 -91 -52 -10 -8 -41 -27 -70 -42 -133 -69 -207 -110 -249
-136 -25 -16 -63 -38 -85 -50 -22 -11 -49 -26 -60 -32 -11 -7 -45 -23 -75 -37
-30 -14 -82 -43 -115 -64 -33 -21 -78 -47 -100 -57 -22 -10 -74 -38 -115 -61
-126 -71 -242 -134 -295 -160 -27 -13 -57 -28 -65 -33 -8 -4 -46 -23 -85 -41
-38 -18 -90 -43 -115 -57 -25 -13 -79 -39 -120 -58 -41 -19 -82 -39 -90 -45
-8 -6 -31 -17 -50 -25 -19 -9 -44 -21 -55 -27 -11 -6 -51 -26 -90 -45 -38 -18
-91 -44 -116 -58 -26 -14 -52 -25 -59 -25 -6 0 -50 -20 -98 -43 -48 -24 -100
-47 -117 -51 -16 -4 -65 -24 -110 -45 -44 -21 -96 -44 -115 -51 -48 -18 -159
-67 -193 -85 -16 -8 -37 -15 -46 -15 -10 0 -29 -8 -42 -19 -14 -10 -40 -23
-59 -29 -19 -5 -92 -33 -162 -61 -69 -28 -132 -51 -140 -51 -8 0 -18 -4 -24
-9 -15 -15 -201 -89 -314 -126 -30 -10 -59 -21 -65 -25 -5 -4 -35 -15 -65 -25
-30 -10 -76 -26 -101 -36 -55 -22 -215 -78 -244 -85 -11 -3 -29 -9 -40 -14
-25 -11 -363 -117 -430 -136 -27 -7 -86 -25 -130 -39 -44 -15 -105 -30 -135
-35 -30 -5 -136 -29 -235 -54 -210 -53 -215 -54 -189 -25 25 29 153 139 255
219 116 92 261 211 284 235 32 32 359 303 483 399 63 49 121 96 130 106 9 9
89 75 177 145 231 186 265 214 315 256 48 41 207 170 380 308 58 46 112 91
120 100 8 9 51 42 95 74 80 58 101 73 270 197 50 37 140 100 200 140 134 89
165 110 330 220 355 238 437 291 484 314 27 14 52 30 56 36 3 6 25 20 48 32
23 11 74 42 114 69 39 26 116 71 170 99 54 29 111 63 128 75 16 12 38 25 47
28 10 4 43 22 73 42 31 19 60 35 66 35 6 0 31 14 55 31 25 17 97 58 161 91 64
33 125 69 136 79 12 10 27 19 34 19 7 0 36 15 66 34 29 19 75 44 102 57 28 13
79 41 114 62 35 22 78 44 95 50 17 6 60 29 96 51 36 23 76 46 90 53 69 31 99
43 107 43 6 0 18 9 28 20 10 11 27 20 37 20 11 0 31 9 45 20 14 11 33 20 42
20 9 0 55 22 102 49 46 26 95 52 109 56 33 10 64 23 185 80 95 45 175 79 310
130 33 12 80 31 105 40 25 10 63 21 85 26 22 4 69 14 105 22 94 21 227 20 266
-1z m-7003 -4357 c-10 -13 -25 -27 -33 -30 -8 -3 -31 -20 -51 -37 -19 -18 -48
-42 -64 -53 -15 -11 -45 -35 -65 -52 -21 -18 -41 -33 -46 -33 -5 0 -36 -25
-69 -56 -67 -63 -269 -235 -320 -274 -96 -72 -255 -202 -309 -252 -33 -32 -67
-58 -73 -58 -7 0 -13 -3 -13 -7 0 -5 -15 -18 -33 -29 -28 -19 -52 -22 -212
-29 -99 -4 -259 -11 -355 -16 -96 -5 -195 -10 -220 -10 -25 -1 -94 -5 -155
-10 -60 -5 -195 -11 -300 -14 -153 -4 -186 -2 -171 8 10 6 44 32 75 55 31 24
74 53 96 64 22 11 55 34 73 49 18 16 41 29 52 29 11 0 27 8 37 18 10 10 40 34
66 53 98 69 113 81 147 113 19 19 49 41 65 49 17 8 39 24 49 36 11 12 27 21
37 21 10 0 37 18 60 40 23 22 45 40 48 40 3 0 39 29 79 65 40 36 81 65 90 65
9 0 28 12 42 26 28 30 61 45 110 48 85 7 225 27 234 35 6 5 63 11 126 14 162
7 286 22 425 52 66 13 138 25 160 25 22 0 58 5 80 11 22 6 53 10 69 9 16 0 36
6 45 13 9 8 43 17 76 21 33 4 64 11 69 16 6 6 30 10 53 10 l44 0 -18 -25z
m-1587 -190 c12 -4 0 -18 -43 -54 -62 -53 -67 -57 -230 -173 -205 -147 -253
-183 -253 -190 0 -4 -14 -15 -31 -23 -17 -9 -51 -32 -76 -51 -24 -19 -49 -34
-54 -34 -8 0 -36 -19 -125 -85 -37 -28 -76 -54 -94 -62 -8 -4 -51 -30 -95 -59
-44 -28 -98 -55 -120 -59 -56 -10 -244 -23 -642 -44 -95 -6 -176 -12 -180 -14
-5 -3 -87 -8 -183 -12 -96 -4 -193 -10 -215 -15 -22 -4 -89 -8 -150 -10 -60
-1 -113 -4 -117 -6 -4 -3 -60 -7 -123 -9 -64 -2 -150 -9 -193 -14 -42 -6 -144
-15 -227 -21 -275 -18 -310 -21 -390 -31 -44 -5 -206 -19 -360 -30 -154 -11
-336 -25 -405 -30 -69 -6 -154 -12 -190 -13 -142 -8 -285 -19 -294 -24 -8 -4
-218 -23 -440 -39 l-88 -6 15 29 c35 66 292 291 404 355 32 18 63 40 70 49 6
9 29 22 51 28 21 7 47 21 57 32 10 11 24 20 31 20 7 0 35 12 61 27 26 14 75
41 108 60 33 18 67 36 75 39 8 3 33 14 55 24 22 10 62 25 89 34 45 16 121 45
171 67 93 40 516 168 559 169 11 0 38 9 60 19 25 12 74 21 126 25 47 3 99 8
115 11 59 12 152 23 285 35 74 6 171 16 215 21 44 5 89 10 100 10 11 0 225 -3
475 -7 250 -3 491 -6 535 -5 44 0 125 0 180 -1 208 -3 302 -3 350 -1 28 1 66
2 85 1 95 -3 473 14 610 28 85 8 166 14 180 12 14 -1 30 1 36 4 6 4 45 11 88
17 43 5 80 12 83 14 3 3 11 4 19 1 8 -2 21 -6 30 -9z m-1261 -893 c-30 -25
-85 -62 -93 -62 -5 0 -21 -9 -35 -20 -14 -11 -58 -37 -99 -59 -40 -21 -111
-62 -158 -91 -94 -59 -163 -97 -350 -190 -68 -35 -130 -69 -138 -76 -7 -8 -18
-14 -23 -14 -6 0 -49 -18 -97 -40 -48 -22 -103 -48 -122 -56 -19 -9 -42 -20
-50 -25 -8 -5 -22 -12 -30 -15 -178 -71 -260 -101 -330 -124 -84 -28 -206 -72
-245 -89 -11 -5 -47 -16 -80 -25 -33 -10 -98 -28 -145 -42 -176 -51 -330 -92
-400 -104 -25 -5 -94 -18 -155 -29 -60 -12 -146 -26 -190 -31 -44 -5 -111 -14
-150 -20 -94 -15 -462 -16 -555 -2 -41 6 -104 14 -140 17 -98 9 -239 51 -365
110 -138 64 -276 231 -292 353 -13 97 65 295 120 306 115 24 349 48 587 62 52
3 111 9 130 15 19 5 82 12 140 15 58 2 159 9 225 14 66 6 156 13 200 15 69 4
210 15 365 29 25 3 110 11 190 19 80 8 213 20 295 26 83 6 200 16 260 21 61 5
124 9 140 9 17 0 77 4 135 9 226 23 908 71 1235 88 66 4 121 7 122 8 8 6 105
4 98 -2z"/>
<path d="M20550 8100 c0 -11 -11 -27 -24 -35 -14 -10 -26 -29 -29 -51 -14 -85
50 -116 128 -63 35 23 45 37 45 57 0 51 -12 73 -51 92 -49 25 -69 25 -69 0z
m65 -69 c3 -5 1 -12 -5 -16 -5 -3 -10 1 -10 9 0 18 6 21 15 7z"/>
<path d="M7635 5600 c3 -5 8 -10 11 -10 2 0 4 5 4 10 0 6 -5 10 -11 10 -5 0
-7 -4 -4 -10z"/>
</g>
</svg>
